<svg width="24" height="24" viewBox="0 0 24 24" fill="none" xmlns="http://www.w3.org/2000/svg">
<path fill-rule="evenodd" clip-rule="evenodd" d="M12.1667 19.2C12.1489 19.2 12.1311 19.1998 12.1134 19.1995C12.181 19.199 12.2485 19.1979 12.3157 19.1964C12.2661 19.1988 12.2164 19.2 12.1667 19.2ZM15.5791 19.4316C15.6228 19.1622 15.5427 18.9153 15.3906 18.7421C18.5097 17.846 20.9092 15.6442 21.7109 12.2216C22.2786 12.141 22.8087 11.88 23.219 11.4726C23.719 10.976 24 10.5931 24 9.6C24 8.6069 23.719 8.22403 23.219 7.72739C22.7867 7.29811 22.2213 7.03143 21.6192 6.96698C20.427 2.94518 16.5718 0 12 0C7.42825 0 3.57305 2.94518 2.38081 6.96698C1.77867 7.03143 1.2133 7.29811 0.781049 7.72739C0.280951 8.22403 0 8.6069 0 9.6C0 10.5931 0.280951 10.976 0.781048 11.4726C1.19129 11.88 1.72142 12.141 2.2891 12.2216C2.95367 15.0588 4.71616 17.057 7.07635 18.168C6.922 18.247 6.77229 18.3556 6.62766 18.4992C5.47522 19.6437 4.71895 21.1081 4.44651 22.6822C4.32177 23.403 4.93029 24 5.66667 24H7.66034C8.2149 24 8.6656 23.5483 8.64213 22.9942C8.56324 21.1313 8.30651 19.6666 8.0545 18.6814C8.04299 18.6365 8.02805 18.5927 8.01005 18.5506C8.3548 18.6722 8.70965 18.7769 9.07331 18.8645C9.03795 18.9568 9.02566 19.0614 9.04432 19.1712C9.24996 20.381 9.43192 21.8657 9.56105 23.0945C9.61498 23.6077 10.0457 24 10.5618 24H14.1049C14.6209 24 15.0517 23.6077 15.1056 23.0944C15.2256 21.9525 15.3913 20.5895 15.5791 19.4316ZM12.1667 18.5379C16.677 18.5379 20.3333 15.8554 20.3333 10.7586C20.3333 6.46223 16.677 2.97931 12.1667 2.97931C7.65634 2.97931 4 6.46223 4 10.7586C4 15.8554 7.65634 18.5379 12.1667 18.5379ZM18.6667 24H17.0063C16.4518 24 16.0011 23.5483 16.0245 22.9943C16.099 21.2347 16.3322 19.8304 16.5702 18.8499C16.6872 18.3676 17.1946 18.0623 17.5755 18.3804C17.6193 18.417 17.6627 18.4566 17.7057 18.4992C18.8581 19.6437 19.6144 21.1081 19.8868 22.6822C20.0116 23.403 19.403 24 18.6667 24ZM12.1667 17.5448C15.9406 17.5448 19 15.2048 19 10.7586C19 7.0107 15.9406 3.97241 12.1667 3.97241C8.39272 3.97241 5.33333 7.0107 5.33333 10.7586C5.33333 15.2048 8.39272 17.5448 12.1667 17.5448Z" fill="#FFFFFE"/>
<ellipse cx="2.49139" cy="1.66093" rx="2.49139" ry="1.66093" transform="matrix(0.709549 0.704656 -0.709549 0.704656 14.3571 4.63452)" fill="#0F0E17"/>
<ellipse cx="0.771693" cy="0.514462" rx="0.771693" ry="0.514462" transform="matrix(-0.709549 0.704656 -0.709549 -0.704656 9.49182 6.68359)" fill="#0F0E17"/>
</svg>
