<svg width="22" height="22" viewBox="0 0 22 22" fill="none" xmlns="http://www.w3.org/2000/svg">
<path fill-rule="evenodd" clip-rule="evenodd" d="M8.315 6.58365C11.1956 2.88296 15.6946 0.500214 20.75 0.5C20.9489 0.499992 21.1397 0.579005 21.2803 0.719659C21.421 0.860312 21.5 1.05108 21.5 1.25C21.5 6.30564 19.1173 10.805 15.4165 13.6859C15.4715 14.0329 15.5 14.3883 15.5 14.75C15.5 18.4779 12.4779 21.5 8.75 21.5C8.33579 21.5 8 21.1642 8 20.75V16.6185C7.99075 16.6118 7.98163 16.6049 7.97264 16.5978C7.02063 15.8429 6.15799 14.9803 5.40312 14.0282C5.39577 14.019 5.38866 14.0096 5.38179 14H1.25C0.835786 14 0.5 13.6642 0.5 13.25C0.5 9.52208 3.52208 6.5 7.25 6.5C7.61198 6.5 7.96772 6.52856 8.315 6.58365ZM14 5.75C12.7574 5.75 11.75 6.75736 11.75 8C11.75 9.24264 12.7574 10.25 14 10.25C15.2426 10.25 16.25 9.24264 16.25 8C16.25 6.75736 15.2426 5.75 14 5.75Z" fill="#FFFFFE"/>
<path d="M4.26036 16.2418C4.59237 15.9942 4.66074 15.5242 4.41306 15.1922C4.16539 14.8602 3.69546 14.7918 3.36345 15.0395C2.08209 15.9954 1.25 17.5256 1.25 19.2499C1.25 19.5255 1.27129 19.7966 1.31246 20.0615C1.36259 20.3842 1.61574 20.6373 1.93842 20.6875C2.20336 20.7286 2.47445 20.7499 2.75 20.7499C4.47434 20.7499 6.00452 19.9178 6.9604 18.6365C7.20808 18.3045 7.13971 17.8345 6.8077 17.5869C6.47569 17.3392 6.00576 17.4075 5.75809 17.7396C5.07313 18.6577 3.98081 19.2499 2.75 19.2499C2.75 18.0191 3.34218 16.9268 4.26036 16.2418Z" fill="#FFFFFE"/>
</svg>
